Coordinates
version=1
nRows=26
nColumns=24
inDegrees=yes

Units are S.I. units (second, meters, Newtons, ...)
Angles are in degrees.

endheader
time	pelvis_tilt	pelvis_list	pelvis_rotation	pelvis_tx	pelvis_ty	pelvis_tz	hip_flexion_r	hip_adduction_r	hip_rotation_r	knee_angle_r	ankle_angle_r	subtalar_angle_r	mtp_angle_r	hip_flexion_l	hip_adduction_l	hip_rotation_l	knee_angle_l	ankle_angle_l	subtalar_angle_l	mtp_angle_l	lumbar_extension	lumbar_bending	lumbar_rotation
      1.07083333	     -0.89961595	     -3.56153911	     -1.82730341	     -0.13132395	      1.05123947	      0.33639413	    -13.41311484	      8.04239329	      0.37378119	     -7.21338456	      8.69635846	     -8.52180108	     -1.84732129	     20.88706156	     -2.11052174	     -8.63278887	      2.72855794	      6.01486124	      5.19529210	     -1.02666689	      3.81531723	      7.21791389	     -0.04745474
      1.07500000	     -0.90019821	     -3.56624425	     -1.85166371	     -0.12547470	      1.05078579	      0.33624076	    -13.53696845	      8.00950719	      0.40825204	     -7.64098660	      8.66294575	     -8.50043596	     -1.84376078	     20.83983583	     -2.04390118	     -8.48946844	      2.68223279	      5.98969393	      5.32164340	     -1.03335369	      3.86576015	      7.20683857	     -0.04539517
      1.07916667	     -0.89347508	     -3.56951955	     -1.85982604	     -0.11959112	      1.05034957	      0.33607956	    -13.65706345	      7.97959300	      0.42481724	     -8.09381927	      8.62043798	     -8.47246663	     -1.83968855	     20.79688527	     -1.97661519	     -8.33227356	      2.54866605	      5.95204464	      5.45401766	     -1.03815000	      3.91004369	      7.18577196	     -0.03867556
      1.08333333	     -0.86588557	     -3.54882650	     -1.75386509	     -0.11360261	      1.04990748	      0.33576998	    -13.79488689	      7.94569797	      0.26860386	     -8.54427746	      8.54583956	     -8.31628993	     -1.82116840	     20.75312263	     -1.84811699	     -8.06381805	      2.32909190	      5.84589484	      5.83658523	     -1.05337748	      3.86862730	      7.17385766	     -0.02438440
      1.08750000	     -0.83374418	     -3.54862930	     -1.77619090	     -0.10768177	      1.04955822	      0.33564981	    -13.90712744	      7.90729785	      0.28190257	     -9.06549187	      8.49450394	     -8.29136662	     -1.81613073	     20.69765399	     -1.79379374	     -7.96920300	      2.03450535	      5.80820069	      5.89989727	     -1.05538178	      3.92770272	      7.13322086	     -0.01685855
      1.09166667	     -0.80099259	     -3.53906365	     -1.80206427	     -0.10171475	      1.04922272	      0.33554309	    -14.00166759	      7.85588199	      0.26459655	     -9.62588411	      8.42051939	     -8.24751999	     -1.80954756	     20.63288137	     -1.73468674	     -7.82191322	      1.70555834	      5.72695534	      5.99698832	     -1.05649186	      3.95956595	      7.08781785	     -0.00637328
      1.09583333	     -0.76834169	     -3.52327623	     -1.81462656	     -0.09570995	      1.04891095	      0.33542193	    -14.08065229	      7.79891271	      0.22595635	    -10.21710568	      8.32541189	     -8.18870888	     -1.80210146	     20.57049262	     -1.66877838	     -7.65663720	      1.32659736	      5.60891545	      6.09596469	     -1.05662434	      3.98608516	      7.03693925	      0.00852286
      1.10000000	     -0.72668741	     -3.51036411	     -1.81774415	     -0.08969570	      1.04863073	      0.33528467	    -14.14532816	      7.74459439	      0.14787009	    -10.85092372	      8.20459586	     -8.10804423	     -1.79286813	     20.49842001	     -1.60650365	     -7.48080224	      0.91586662	      5.44678876	      6.19300475	     -1.05583836	      4.00340844	      6.98175954	      0.02687722
      1.10416667	     -0.71746553	     -3.45298781	     -1.68516461	     -0.08349723	      1.04826757	      0.33483468	    -14.15922250	      7.65555187	     -0.27086806	    -11.48872779	      7.91647156	     -7.76270523	     -1.75576834	     20.47641268	     -1.43796955	     -7.22133918	      0.47181487	      4.95250311	      6.35779409	     -1.04984133	      3.87993661	      6.94754406	      0.06339500
      1.10833333	     -0.63941627	     -3.42483005	     -1.71144892	     -0.07740869	      1.04811368	      0.33477980	    -14.23768272	      7.57837227	     -0.26964291	    -12.17896689	      7.82778338	     -7.70074512	     -1.74555549	     20.34389570	     -1.38066883	     -7.07546061	      0.02244083	      4.84163828	      6.37145951	     -1.04623398	      3.98150280	      6.88101128	      0.08037732
      1.11250000	     -0.52077177	     -3.31330578	     -1.61535932	     -0.07111599	      1.04799848	      0.33417244	    -14.31887923	      7.38101448	     -0.80094430	    -12.93188034	      7.73594997	     -6.78576017	     -1.53293636	     20.12554604	     -1.14368200	     -6.56447209	     -0.32471475	      4.16964342	      5.71946469	     -0.95358748	      3.88058679	      6.73819206	      0.11031793
      1.11666667	     -0.46092577	     -3.27748333	     -1.65763842	     -0.06500152	      1.04789227	      0.33410808	    -14.32513772	      7.28230407	     -0.82415032	    -13.71947879	      7.60227875	     -6.78282566	     -1.52165263	     19.99551276	     -1.09008061	     -6.42594330	     -0.78450990	      4.03533711	      5.73742407	     -0.94807746	      3.94117737	      6.67587583	      0.12139919
      1.12083333	     -0.44749788	     -3.18299667	     -1.59118027	     -0.05865145	      1.04771882	      0.33365489	    -14.25613298	      7.10965521	     -1.23190675	    -14.52297782	      7.08362130	     -6.41180885	     -1.39896475	     19.89431913	     -0.90953286	     -6.10668794	     -1.17038473	      3.22678216	      5.43018123	     -0.89023935	      3.98620483	      6.62492826	      0.15690523
      1.12500000	     -0.39715640	     -3.12735377	     -1.53834862	     -0.05250271	      1.04763993	      0.33329701	    -14.18880121	      6.98135827	     -1.53344517	    -15.39831796	      6.76721315	     -6.11694439	     -1.28818776	     19.78424028	     -0.79333700	     -5.92468830	     -1.63972489	      2.73405655	      5.05751842	     -0.83345321	      3.96985753	      6.49691064	      0.18092370
      1.12916667	     -0.35546123	     -3.03567288	     -1.53443638	     -0.04624018	      1.04761788	      0.33294299	    -14.08959315	      6.78854507	     -1.83064501	    -16.32461800	      6.40015458	     -5.80507758	     -1.17823781	     19.63565825	     -0.65130941	     -5.69392068	     -2.03589493	      2.20192362	      4.72113307	     -0.77715600	      3.96552252	      6.36935075	      0.20305975
      1.13333333	     -0.30580731	     -2.92834473	     -1.52683293	     -0.03993499	      1.04764640	      0.33255717	    -13.97574841	      6.57018320	     -2.14018280	    -17.28955279	      5.99199723	     -5.45374071	     -1.05700406	     19.46690378	     -0.49266821	     -5.47451426	     -2.41816741	      1.64691895	      4.32960985	     -0.71556532	      3.98833951	      6.24240605	      0.22383349
      1.13750000	     -0.24117512	     -2.81066907	     -1.51988446	     -0.03363670	      1.04774454	      0.33214211	    -13.84936672	      6.32876626	     -2.45721848	    -18.29901231	      5.54515546	     -5.06816283	     -0.91654258	     19.27328635	     -0.32575178	     -5.24749331	     -2.78821749	      1.07527336	      3.88349522	     -0.64475041	      3.99500402	      6.10262995	      0.24127898
      1.14166667	     -0.20496168	     -2.67261488	     -1.59720695	     -0.02729070	      1.04788683	      0.33182850	    -13.65983142	      6.04007781	     -2.68368036	    -19.38538488	      5.21624383	     -4.89401085	     -0.84656141	     19.07896713	     -0.16945175	     -5.08767928	     -3.13114687	      0.76121604	      3.71368682	     -0.60963096	      3.94497913	      6.00177325	      0.24156751
      1.14583333	     -0.10635113	     -2.56497158	     -1.50890354	     -0.02107147	      1.04807158	      0.33132029	    -13.51858666	      5.81790674	     -3.05055785	    -20.44467576	      4.50687789	     -4.37278738	     -0.70029252	     18.88358352	     -0.00261832	     -4.94461201	     -3.55415166	      0.07036945	      3.22270509	     -0.54369486	      4.01927541	      5.80213705	      0.27355587
      1.15000000	     -0.02557905	     -2.39648991	     -1.51963817	     -0.01476427	      1.04833113	      0.33055607	    -13.31070443	      5.45268240	     -3.42206195	    -21.62941429	      4.14230277	     -3.82277042	     -0.15819045	     18.59247459	      0.24902393	     -4.27957543	     -3.77398684	     -0.68789977	      1.85640382	     -0.27547407	      3.99964857	      5.66985570	      0.23563552
      1.15416667	      0.04514536	     -2.25183871	     -1.51497018	     -0.00852017	      1.04859276	      0.33016004	    -13.07155544	      5.15803785	     -3.71762954	    -22.81413317	      3.47579518	     -3.55548771	     -0.03379119	     18.41335795	      0.41496039	     -4.34657212	     -4.21384092	     -0.98911076	      1.83014078	     -0.21550624	      3.98750100	      5.47958829	      0.24435541
      1.15833333	      0.12484270	     -2.09342544	     -1.53654254	     -0.00228203	      1.04892382	      0.32974330	    -12.80971752	      4.83111903	     -3.96528981	    -24.04444573	      2.74175754	     -3.23091103	      0.10879395	     18.20128956	      0.59038758	     -4.33823943	     -4.61071448	     -1.35777427	      1.71259615	     -0.15211287	      3.97252494	      5.28266915	      0.25137810
      1.16250000	      0.17843485	     -1.89759306	     -1.60634806	      0.00398381	      1.04926962	      0.32932523	    -12.48251632	      4.43862955	     -4.18291191	    -25.35819447	      2.27041392	     -3.07799505	      0.17551188	     17.99105432	      0.79641262	     -4.29474034	     -4.97582250	     -1.55111648	      1.67819867	     -0.12324472	      3.90274019	      5.14197570	      0.24796619
      1.16666667	      0.28130594	     -1.73282958	     -1.58463686	      0.01010668	      1.04966979	      0.32885684	    -12.18711111	      4.10295895	     -4.42294260	    -26.63235116	      1.19771004	     -2.60090407	      0.33602614	     17.77776472	      0.98280666	     -4.33092948	     -5.41110373	     -1.96251359	      1.41352134	     -0.06130948	      3.93295204	      4.84294351	      0.26941299
      1.17083333	      0.35525573	     -1.52670965	     -1.62687906	      0.01628052	      1.05008105	      0.32834956	    -11.82217350	      3.68946942	     -4.62414136	    -27.99146412	      0.35025783	     -2.30481370	      0.51949301	     17.55378542	      1.20915651	     -4.28361923	     -5.78401078	     -2.24585782	      1.15611669	      0.00881818	      3.90628570	      4.61726889	      0.26917827
      1.17500000	      0.43103786	     -1.29802758	     -1.69412455	      0.02245082	      1.05052570	      0.32785920	    -11.42826864	      3.24124272	     -4.77639100	    -29.38513984	     -0.57104214	     -2.04779184	      0.82697995	     17.30614286	      1.45461608	     -4.17999461	     -6.11748631	     -2.52032064	      0.84516808	      0.12228281	      3.95637895	      4.43963417	      0.25554429
